<?xml version="1.0" encoding="UTF-8" standalone="no"?>
<!-- Created with Inkscape (http://www.inkscape.org/) -->

<svg
   xmlns:dc="http://purl.org/dc/elements/1.1/"
   xmlns:cc="http://creativecommons.org/ns#"
   xmlns:rdf="http://www.w3.org/1999/02/22-rdf-syntax-ns#"
   xmlns:svg="http://www.w3.org/2000/svg"
   xmlns="http://www.w3.org/2000/svg"
   xmlns:xlink="http://www.w3.org/1999/xlink"
   xmlns:sodipodi="http://sodipodi.sourceforge.net/DTD/sodipodi-0.dtd"
   xmlns:inkscape="http://www.inkscape.org/namespaces/inkscape"
   width="64px"
   height="64px"
   id="svg2985"
   version="1.1"
   inkscape:version="0.91 r13725"
   sodipodi:docname="file_add_remove.svg">
  <defs
     id="defs2987">
    <linearGradient
       gradientTransform="matrix(0.22150856,0,0,0.24230317,19.418519,45.131238)"
       inkscape:collect="always"
       xlink:href="#linearGradient4365"
       id="linearGradient4371"
       x1="32.468597"
       y1="58.563877"
       x2="32.939259"
       y2="4.8237629"
       gradientUnits="userSpaceOnUse" />
    <linearGradient
       inkscape:collect="always"
       id="linearGradient4365">
      <stop
         style="stop-color:#a23030;stop-opacity:1"
         offset="0"
         id="stop4367" />
      <stop
         style="stop-color:#ff3030;stop-opacity:1"
         offset="1"
         id="stop4369" />
    </linearGradient>
  </defs>
  <sodipodi:namedview
     id="base"
     pagecolor="#ffffff"
     bordercolor="#666666"
     borderopacity="1.0"
     inkscape:pageopacity="0.0"
     inkscape:pageshadow="2"
     inkscape:zoom="8.0000004"
     inkscape:cx="-1.335875"
     inkscape:cy="18.494414"
     inkscape:current-layer="layer1"
     showgrid="true"
     inkscape:document-units="px"
     inkscape:grid-bbox="true"
     showguides="true"
     inkscape:guide-bbox="true"
     inkscape:window-width="1855"
     inkscape:window-height="1056"
     inkscape:window-x="65"
     inkscape:window-y="24"
     inkscape:window-maximized="1"
     inkscape:snap-global="false">
    <sodipodi:guide
       orientation="0,1"
       position="0,54"
       id="guide2997" />
    <sodipodi:guide
       orientation="1,0"
       position="5,0"
       id="guide2999" />
    <sodipodi:guide
       orientation="1,0"
       position="59,0"
       id="guide3001" />
    <sodipodi:guide
       orientation="0,1"
       position="0,59"
       id="guide3003" />
    <sodipodi:guide
       orientation="0,1"
       position="0,5"
       id="guide3005" />
    <sodipodi:guide
       orientation="0,1"
       position="0,10"
       id="guide3007" />
    <sodipodi:guide
       orientation="0,1"
       position="0,22"
       id="guide3011" />
    <sodipodi:guide
       orientation="0,1"
       position="0,17"
       id="guide3013" />
    <sodipodi:guide
       orientation="0,1"
       position="0,26"
       id="guide3015" />
    <sodipodi:guide
       orientation="0,1"
       position="0,38"
       id="guide3019" />
    <sodipodi:guide
       orientation="0,1"
       position="0,42"
       id="guide3021" />
    <sodipodi:guide
       orientation="1,0"
       position="-100,-75.837202"
       id="guide3065" />
    <sodipodi:guide
       orientation="1,0"
       position="-80,-82.90827"
       id="guide3067" />
    <sodipodi:guide
       orientation="1,0"
       position="-60,-96.696852"
       id="guide3069" />
    <sodipodi:guide
       orientation="0,1"
       position="-35.532116,-80"
       id="guide3071" />
    <sodipodi:guide
       orientation="0,1"
       position="-31.289475,-60"
       id="guide3073" />
    <sodipodi:guide
       orientation="0,1"
       position="-21.566757,-40"
       id="guide3075" />
  </sodipodi:namedview>
  <metadata
     id="metadata2990">
    <rdf:RDF>
      <cc:Work
         rdf:about="">
        <dc:format>image/svg+xml</dc:format>
        <dc:type
           rdf:resource="http://purl.org/dc/dcmitype/StillImage" />
        <dc:title></dc:title>
      </cc:Work>
    </rdf:RDF>
  </metadata>
  <g
     id="layer1"
     inkscape:label="Layer 1"
     inkscape:groupmode="layer">
    <path
       style="fill:#6282a3;fill-opacity:1;stroke:#31465d;stroke-opacity:1"
       d="M 20.306641 5.4863281 C 17.248578 5.4863281 16.457023 6.540462 16.439453 9.0214844 L 16.439453 36.931641 C 17.399341 36.483001 18.455181 36.234375 19.564453 36.234375 C 23.75504 36.234375 27.185438 39.7803 27.515625 44.285156 C 31.417854 44.8236 34.437577 48.460323 34.4375 52.875 C 34.43753 54.671267 33.937614 56.340755 33.082031 57.724609 L 56.46875 57.724609 C 58.608533 57.724609 59.042969 56.961661 59.042969 55.578125 L 59.042969 13.070312 L 50.734375 5.4863281 L 20.306641 5.4863281 z "
       id="rect4250" />
    <path
       inkscape:connector-curvature="0"
       style="fill:url(#linearGradient4371);fill-opacity:1;stroke:#b23030;stroke-width:0.53214747;stroke-linecap:round;stroke-linejoin:round;stroke-miterlimit:4;stroke-dasharray:none;stroke-opacity:1"
       d="m 26.515877,46.4587 a 5.8655412,6.4161813 0 0 0 -5.865649,6.416302 5.8655412,6.4161813 0 0 0 5.865649,6.416301 5.8655412,6.4161813 0 0 0 5.865651,-6.416301 5.8655412,6.4161813 0 0 0 -5.865651,-6.416302 z m -3.769105,5.870173 7.440004,0 c 0.303706,0 0.548148,0.267389 0.548148,0.599606 0,0.332217 -0.244442,0.599605 -0.548148,0.599605 l -7.440004,0 c -0.303707,0 -0.548148,-0.267388 -0.548148,-0.599605 0,-0.332217 0.244441,-0.599606 0.548148,-0.599606 z"
       id="path4360" />
    <path
       style="fill:#1da738;fill-opacity:1;stroke:#076b1c;stroke-width:0.53089887;stroke-opacity:1"
       d="m 19.565419,38.611337 c -3.213042,0 -5.817727,2.857989 -5.817727,6.383502 0,3.525513 2.604685,6.383503 5.817727,6.383503 3.213042,0 5.817728,-2.85799 5.817728,-6.383503 0,-3.525513 -2.604686,-6.383502 -5.817728,-6.383502 z m -1.109004,2.463633 2.26346,0 0,2.822705 2.572525,0 0,2.473609 -2.572525,0 0,2.822705 -2.26346,0 0,-2.822705 -2.572526,0 0,-2.473609 2.572526,0 0,-2.822705 z"
       id="path3061"
       inkscape:connector-curvature="0" />
  </g>
</svg>
