<?xml version="1.0" encoding="UTF-8" standalone="no"?>
<!-- Created with Inkscape (http://www.inkscape.org/) -->

<svg
   xmlns:dc="http://purl.org/dc/elements/1.1/"
   xmlns:cc="http://creativecommons.org/ns#"
   xmlns:rdf="http://www.w3.org/1999/02/22-rdf-syntax-ns#"
   xmlns:svg="http://www.w3.org/2000/svg"
   xmlns="http://www.w3.org/2000/svg"
   xmlns:sodipodi="http://sodipodi.sourceforge.net/DTD/sodipodi-0.dtd"
   xmlns:inkscape="http://www.inkscape.org/namespaces/inkscape"
   width="64px"
   height="64px"
   id="svg2985"
   version="1.1"
   inkscape:version="0.91 r13725"
   sodipodi:docname="push.svg">
  <defs
     id="defs2987" />
  <sodipodi:namedview
     id="base"
     pagecolor="#ffffff"
     bordercolor="#666666"
     borderopacity="1.0"
     inkscape:pageopacity="0.0"
     inkscape:pageshadow="2"
     inkscape:zoom="11.313708"
     inkscape:cx="13.289461"
     inkscape:cy="66.518592"
     inkscape:current-layer="layer1"
     showgrid="true"
     inkscape:document-units="px"
     inkscape:grid-bbox="true"
     showguides="true"
     inkscape:guide-bbox="true"
     inkscape:window-width="1855"
     inkscape:window-height="1056"
     inkscape:window-x="65"
     inkscape:window-y="24"
     inkscape:window-maximized="1"
     inkscape:snap-global="false">
    <sodipodi:guide
       orientation="1,0"
       position="5,0"
       id="guide2999" />
    <sodipodi:guide
       orientation="1,0"
       position="59,0"
       id="guide3001" />
    <sodipodi:guide
       orientation="0,1"
       position="0,59"
       id="guide3003" />
    <sodipodi:guide
       orientation="0,1"
       position="0,5"
       id="guide3005" />
  </sodipodi:namedview>
  <metadata
     id="metadata2990">
    <rdf:RDF>
      <cc:Work
         rdf:about="">
        <dc:format>image/svg+xml</dc:format>
        <dc:type
           rdf:resource="http://purl.org/dc/dcmitype/StillImage" />
        <dc:title></dc:title>
      </cc:Work>
    </rdf:RDF>
  </metadata>
  <g
     id="layer1"
     inkscape:label="Layer 1"
     inkscape:groupmode="layer">
    <circle
       r="0"
       cy="-32.294125"
       cx="-33.6264"
       id="ellipse3992"
       style="fill:#ff0000;fill-rule:evenodd;stroke:#000000;stroke-width:1.24564338px;stroke-linecap:butt;stroke-linejoin:miter;stroke-opacity:1"
       transform="scale(-1,-1)" />
    <path
       style="fill:#6282a3;fill-opacity:1;stroke:#31465d;stroke-width:1;stroke-miterlimit:4;stroke-dasharray:none;stroke-opacity:1"
       d="m 33.89106,58.545089 c 1.077277,0 1.945312,-0.866082 1.945312,-1.94336 l 0,-43.457031 15.023438,8.675781 c 0.932949,0.538639 2.117611,0.220059 2.65625,-0.71289 l 1.105468,-1.914063 c 0.538639,-0.932949 0.220059,-2.117611 -0.71289,-2.65625 L 35.519966,5.9200893 c -0.442326,-0.255377 -0.940567,-0.310885 -1.400391,-0.207032 -0.07593,-0.00894 -0.150108,-0.023437 -0.228515,-0.023437 l -2.208985,0 c -0.494594,0 -0.94075,0.188223 -1.283203,0.490234 -0.0695,0.030013 -0.139805,0.054937 -0.207031,0.09375 L 11.801216,16.890792 c -0.93295,0.538638 -1.249576,1.7233 -0.710938,2.65625 l 1.105469,1.914062 c 0.538639,0.93295 1.723301,1.251529 2.65625,0.712891 l 14.884766,-8.59375 0,43.021484 c 0,1.077278 0.868035,1.94336 1.945312,1.94336 l 2.208985,0 z"
       id="rect4209"
       inkscape:connector-curvature="0" />
  </g>
</svg>
