<?xml version="1.0" encoding="UTF-8" standalone="no"?>
<!-- Created with Inkscape (http://www.inkscape.org/) -->

<svg
   width="32.0px"
   height="32.0px"
   viewBox="0 0 32.0 32.0"
   version="1.1"
   id="SVGRoot"
   sodipodi:docname="addremove.svg"
   xml:space="preserve"
   inkscape:version="1.2.2 (b0a8486541, 2022-12-01)"
   xmlns:inkscape="http://www.inkscape.org/namespaces/inkscape"
   xmlns:sodipodi="http://sodipodi.sourceforge.net/DTD/sodipodi-0.dtd"
   xmlns:xlink="http://www.w3.org/1999/xlink"
   xmlns="http://www.w3.org/2000/svg"
   xmlns:svg="http://www.w3.org/2000/svg"><sodipodi:namedview
     id="namedview25425"
     pagecolor="#ffffff"
     bordercolor="#000000"
     borderopacity="0.25"
     inkscape:showpageshadow="2"
     inkscape:pageopacity="0.0"
     inkscape:pagecheckerboard="0"
     inkscape:deskcolor="#d1d1d1"
     inkscape:document-units="px"
     showgrid="true"
     inkscape:zoom="11.313709"
     inkscape:cx="-1.5026019"
     inkscape:cy="24.35099"
     inkscape:window-width="1467"
     inkscape:window-height="1014"
     inkscape:window-x="445"
     inkscape:window-y="0"
     inkscape:window-maximized="0"
     inkscape:current-layer="layer1"
     showguides="false"><inkscape:grid
       type="xygrid"
       id="grid25431" /><sodipodi:guide
       position="25.527659,5.5"
       orientation="0,1"
       id="guide418"
       inkscape:locked="false"
       inkscape:label=""
       inkscape:color="rgb(0,134,229)" /></sodipodi:namedview><defs
     id="defs25420"><linearGradient
       inkscape:collect="always"
       id="linearGradient5051"><stop
         style="stop-color:#e43c2d;stop-opacity:1;"
         offset="0"
         id="stop5047" /><stop
         style="stop-color:#d14234;stop-opacity:1;"
         offset="1"
         id="stop5049" /></linearGradient><linearGradient
       inkscape:collect="always"
       id="linearGradient44703"><stop
         style="stop-color:#1b983e;stop-opacity:1;"
         offset="0"
         id="stop44699" /><stop
         style="stop-color:#32c350;stop-opacity:1;"
         offset="1"
         id="stop44701" /></linearGradient><linearGradient
       inkscape:collect="always"
       id="linearGradient34718"><stop
         style="stop-color:#6383a4;stop-opacity:1;"
         offset="0"
         id="stop34714" /><stop
         style="stop-color:#4b6886;stop-opacity:1;"
         offset="1"
         id="stop34716" /></linearGradient><linearGradient
       inkscape:collect="always"
       xlink:href="#linearGradient34718"
       id="linearGradient384"
       gradientUnits="userSpaceOnUse"
       gradientTransform="translate(-0.36269188,-0.330542)"
       x1="17.913162"
       y1="4.8818264"
       x2="17.913162"
       y2="27.713322" /><linearGradient
       inkscape:collect="always"
       xlink:href="#linearGradient44703"
       id="linearGradient452"
       gradientUnits="userSpaceOnUse"
       gradientTransform="matrix(0.6848152,0,0,0.68481522,0.92867295,4.679677)"
       x1="11.090686"
       y1="29.78417"
       x2="11.216754"
       y2="13.400378" /><linearGradient
       inkscape:collect="always"
       xlink:href="#linearGradient5051"
       id="linearGradient636"
       gradientUnits="userSpaceOnUse"
       gradientTransform="matrix(0.68481519,0,0,0.68481507,5.928674,9.679677)"
       x1="11.057325"
       y1="13.603374"
       x2="11.058839"
       y2="29.674284" /></defs><g
     inkscape:label="Layer 1"
     inkscape:groupmode="layer"
     id="layer1"><path
       id="path382"
       style="fill:url(#linearGradient384);fill-opacity:1;stroke:#31465d;stroke-width:1;stroke-dasharray:none;stroke-opacity:1"
       d="M 10.5 4.5 C 9.2425968 4.5 8.5117187 5.1989617 8.5117188 6.4394531 L 8.5078125 12.5 A 7 7 0 0 1 15.269531 17.728516 A 7 7 0 0 1 20.5 24.5 A 7 7 0 0 1 19.816406 27.503906 L 23.5 27.505859 C 24.793849 27.505859 25.5 26.806608 25.5 25.5 L 25.5 9.5 L 20.5 4.5 L 10.5 4.5 z " /><path
       id="path634"
       style="fill:url(#linearGradient636);fill-opacity:1;stroke:#b1291d;stroke-width:0.68749;stroke-linecap:round;stroke-linejoin:round;stroke-dasharray:none;stroke-opacity:1"
       d="M 15.482422 19.738281 A 7 7 0 0 1 14.251953 23.46875 L 17.28125 23.46875 L 17.28125 25.53125 L 12.023438 25.53125 A 7 7 0 0 1 8.7382812 26.482422 C 9.5150556 28.346391 11.354593 29.65625 13.5 29.65625 C 16.347718 29.65625 18.65625 27.347717 18.65625 24.5 C 18.65625 22.354594 17.34639 20.515056 15.482422 19.738281 z " /><path
       id="path448"
       style="fill:url(#linearGradient452);fill-opacity:1;stroke:#09581c;stroke-width:0.68749;stroke-linecap:round;stroke-linejoin:round;stroke-dasharray:none;stroke-opacity:0.988235"
       d="m 8.5000006,14.343745 c -2.8477212,0 -5.1562556,2.308533 -5.1562556,5.156255 0,2.847721 2.3085344,5.156254 5.1562556,5.156254 2.8477214,0 5.1562534,-2.308533 5.1562534,-5.156254 0,-2.847722 -2.308532,-5.156255 -5.1562534,-5.156255 z M 7.4687647,15.718803 H 9.531236 v 2.749961 h 2.74996 v 2.062471 h -2.74996 v 2.749961 H 7.4687647 V 20.531235 H 4.7188038 v -2.062471 h 2.7499609 z"
       sodipodi:nodetypes="sssssccccccccccccc" /><path
       style="fill:none;fill-opacity:1;stroke:#d2dde7;stroke-width:0.5;stroke-linecap:round;stroke-linejoin:round;stroke-dasharray:none;stroke-opacity:0.5"
       d="M 10.1,5.25 H 20.25"
       id="path8030"
       sodipodi:nodetypes="cc" /></g></svg>
