<?xml version="1.0" encoding="UTF-8" standalone="no"?>
<!-- Created with Inkscape (http://www.inkscape.org/) -->

<svg
   width="32.0px"
   height="32.0px"
   viewBox="0 0 32.0 32.0"
   version="1.1"
   id="SVGRoot"
   sodipodi:docname="tag.svg"
   xml:space="preserve"
   inkscape:version="1.2.2 (b0a8486541, 2022-12-01)"
   xmlns:inkscape="http://www.inkscape.org/namespaces/inkscape"
   xmlns:sodipodi="http://sodipodi.sourceforge.net/DTD/sodipodi-0.dtd"
   xmlns="http://www.w3.org/2000/svg"
   xmlns:svg="http://www.w3.org/2000/svg"><sodipodi:namedview
     id="namedview25425"
     pagecolor="#ffffff"
     bordercolor="#000000"
     borderopacity="0.25"
     inkscape:showpageshadow="2"
     inkscape:pageopacity="0.0"
     inkscape:pagecheckerboard="0"
     inkscape:deskcolor="#d1d1d1"
     inkscape:document-units="px"
     showgrid="true"
     inkscape:zoom="22.627417"
     inkscape:cx="12.109204"
     inkscape:cy="12.882602"
     inkscape:window-width="1467"
     inkscape:window-height="1014"
     inkscape:window-x="445"
     inkscape:window-y="0"
     inkscape:window-maximized="0"
     inkscape:current-layer="layer1"
     showguides="true"><inkscape:grid
       type="xygrid"
       id="grid25431" /></sodipodi:namedview><defs
     id="defs25420"><inkscape:path-effect
       effect="spiro"
       id="path-effect12494"
       is_visible="true"
       lpeversion="1" /><inkscape:path-effect
       effect="spiro"
       id="path-effect12392"
       is_visible="true"
       lpeversion="1" /></defs><g
     inkscape:label="Layer 1"
     inkscape:groupmode="layer"
     id="layer1"><path
       id="rect330"
       style="fill:#6383a4;stroke:#31465d;stroke-width:1;stroke-linecap:square;stroke-linejoin:miter;paint-order:normal;stroke-opacity:1;stroke-dasharray:none;fill-opacity:1"
       d="M 5.9447001,4.9447001 C 5.6701156,5.2192845 5.4999965,5.5983695 5.499996,6.0191711 l 2e-7,7.6732129 11.5788738,11.578874 c 1.382764,1.382764 3.608415,1.382764 4.99118,0 l 4.201208,-4.201209 c 1.382764,-1.382764 1.382764,-3.608415 0,-4.991179 L 14.692385,4.4999962 l -7.6732139,-2e-7 c -0.4208016,5e-7 -0.7998866,0.1701196 -1.074471,0.4447041 z m 2.3340047,2.3340047 a 2.7885852,2.7885852 0 0 1 3.9443302,4e-7 2.7885852,2.7885852 0 0 1 0,3.9443298 2.7885852,2.7885852 0 0 1 -3.9443302,-10e-7 2.7885852,2.7885852 0 0 1 0,-3.9443292 z" /><path
       id="path7201"
       style="fill:#777777;stroke:#323232;stroke-width:0.999992;stroke-linecap:square;stroke-linejoin:miter;paint-order:stroke fill markers"
       d="m 51.216632,1.7246094 c -0.388321,0 -0.776667,0.1477612 -1.074219,0.4453125 L 44.716632,7.5957031 V 23.970703 c 0,1.955524 1.573773,3.529297 3.529297,3.529297 h 5.941406 c 1.955524,0 3.529297,-1.573773 3.529297,-3.529297 V 7.5957031 L 52.290851,2.1699219 C 51.993299,1.8723706 51.604953,1.7246094 51.216632,1.7246094 Z m 0,3.3007812 A 2.7885852,2.7885852 0 0 1 54.005694,7.8144531 2.7885852,2.7885852 0 0 1 51.216632,10.603516 2.7885852,2.7885852 0 0 1 48.42757,7.8144531 2.7885852,2.7885852 0 0 1 51.216632,5.0253906 Z" /></g></svg>
