<?xml version="1.0" encoding="UTF-8" standalone="no"?>
<svg
   xmlns:dc="http://purl.org/dc/elements/1.1/"
   xmlns:cc="http://creativecommons.org/ns#"
   xmlns:rdf="http://www.w3.org/1999/02/22-rdf-syntax-ns#"
   xmlns:svg="http://www.w3.org/2000/svg"
   xmlns="http://www.w3.org/2000/svg"
   xmlns:sodipodi="http://sodipodi.sourceforge.net/DTD/sodipodi-0.dtd"
   xmlns:inkscape="http://www.inkscape.org/namespaces/inkscape"
   width="24"
   height="24"
   viewBox="0 0 24 24"
   version="1.1"
   id="svg4"
   sodipodi:docname="gear.svg"
   inkscape:version="0.92.4 5da689c313, 2019-01-14">
  <metadata
     id="metadata10">
    <rdf:RDF>
      <cc:Work
         rdf:about="">
        <dc:format>image/svg+xml</dc:format>
        <dc:type
           rdf:resource="http://purl.org/dc/dcmitype/StillImage" />
      </cc:Work>
    </rdf:RDF>
  </metadata>
  <defs
     id="defs8" />
  <sodipodi:namedview
     pagecolor="#ffffff"
     bordercolor="#666666"
     borderopacity="1"
     objecttolerance="10"
     gridtolerance="10"
     guidetolerance="10"
     inkscape:pageopacity="0"
     inkscape:pageshadow="2"
     inkscape:window-width="1920"
     inkscape:window-height="1027"
     id="namedview6"
     showgrid="false"
     inkscape:zoom="9.8333333"
     inkscape:cx="12"
     inkscape:cy="12"
     inkscape:window-x="0"
     inkscape:window-y="0"
     inkscape:window-maximized="1"
     inkscape:current-layer="svg4" />
  <path
     d="M 22,13.346666 V 10.653334 C 20.624166,10.164166 19.755,10.026666 19.3175,8.9708337 V 8.97 C 18.878334,7.9108337 19.40084,7.1916663 20.023334,5.8808338 L 18.119166,3.9766666 C 16.818334,4.595 16.091666,5.1225 15.03,4.6825 h -8.34e-4 C 13.971666,4.2441666 13.833334,3.3691666 13.346666,2 h -2.693332 c -0.485,1.3625 -0.624168,2.2433334 -1.6825006,2.6825 H 8.97 C 7.9108334,5.1225 7.1933334,4.6008337 5.8808334,3.9766666 L 3.9766666,5.8808337 C 4.5975,7.1875 5.1225,7.9091662 4.6825,8.97 4.2433334,10.029166 3.3625,10.168334 2,10.653334 v 2.693332 c 1.36,0.483334 2.2433334,0.624168 2.6825,1.6825 0.4416666,1.068334 -0.095,1.805 -0.7058334,3.089168 l 1.9041668,1.905 C 7.1825,19.404166 7.9091666,18.8775 8.97,19.3175 h 8.334e-4 C 10.029166,19.755834 10.1675,20.633334 10.653334,22 h 2.693332 c 0.485,-1.363334 0.625,-2.241666 1.689168,-2.685 h 8.32e-4 c 1.051668,-0.436666 1.766668,0.08416 3.081668,0.709166 l 1.904166,-1.905 c -0.62,-1.3025 -1.145834,-2.0275 -0.706666,-3.088332 0.439166,-1.059168 1.323332,-1.2 2.684166,-1.684168 z m -10,1.986668 c -1.840834,0 -3.3333334,-1.4925 -3.3333334,-3.333334 0,-1.840834 1.4924994,-3.3333338 3.3333334,-3.3333338 1.840834,0 3.333334,1.4924998 3.333334,3.3333338 0,1.840834 -1.4925,3.333334 -3.333334,3.333334 z"
     id="path2"
     inkscape:connector-curvature="0"
     style="stroke-width:0.83333337" />
</svg>
